# xmcd CD database file
#
# Track frame offsets:
#	150
#	16817
#	34547
#	54821
#	69806
#	90811
#	103515
#	120850
#	137353
#	155746
#
# Disc length: 2353 seconds
#
# Revision: 1
# Processed by: cddbd v1.4PL0 Copyright (c) Steve Scherf et al.
# Submitted via: CDex 1.50
#
DISCID=5f092f0a
DTITLE=Chai Blues - Chai Blues
DYEAR=2003
DGENRE=Blues
TTITLE0=Lhong rerng ten ra-bum
TTITLE1=Rim ra-bieng
TTITLE2=Chun mai care
TTITLE3=Kun lae kun
TTITLE4=Krai suk khon
TTITLE5=Sabai hae
TTITLE6=Nai narm kong kwam pen khon
TTITLE7=Kang ka jai
TTITLE8=Tanon kong karn wela
TTITLE9=Por
EXTD=YEAR: 2003
EXTT0=
EXTT1=
EXTT2=
EXTT3=
EXTT4=
EXTT5=
EXTT6=
EXTT7=
EXTT8=
EXTT9=
PLAYORDER=
